<svg xmlns="http://www.w3.org/2000/svg" version="1.0" width="300.000000pt" height="300.000000pt" viewBox="0 0 300.000000 300.000000" preserveAspectRatio="xMidYMid meet">
<metadata fill="#f8c8dc">
Created by potrace 1.10, written by Peter Selinger 2001-2011
</metadata>
<g transform="translate(0.000000,300.000000) scale(0.100000,-0.100000)" fill="#f8c8dc" stroke="none">
<path d="M1998 2553 c-81 -87 -150 -303 -302 -949 -48 -200 -38 -181 -182 -354 -76 -91 -158 -166 -211 -194 -107 -55 -164 36 -129 209 l16 82 90 90 c108 109 153 189 129 232 -60 107 -215 -79 -285 -339 -23 -87 -24 -225 -2 -266 44 -81 119 -105 204 -63 81 39 299 263 287 295 -5 13 26 63 40 64 13 0 0 -61 -16 -73 -17 -13 -54 -170 -122 -517 -60 -306 -73 -413 -56 -434 20 -24 39 -19 61 17 23 36 25 59 9 85 -9 14 -5 52 15 168 49 266 172 835 250 1150 30 123 42 155 97 249 117 205 185 371 196 482 6 69 -4 93 -41 93 -12 0 -34 -12 -48 -27z m52 -38 c0 -8 -4 -15 -8 -15 -4 0 -16 -30 -26 -66 -9 -37 -41 -122 -70 -190 -29 -68 -49 -125 -44 -126 10 -4 -34 -91 -57 -115 -18 -18 -18 -14 0 60 7 33 20 64 28 70 8 7 32 66 55 132 22 66 53 147 68 180 16 33 29 63 30 68 1 4 2 9 3 12 3 12 21 4 21 -10z m-704 -902 c-8 -15 -33 -52 -55 -82 -23 -30 -41 -60 -41 -67 0 -13 -50 -57 -57 -50 -7 7 29 86 37 81 5 -3 30 27 57 66 26 39 52 77 58 85 16 23 17 -2 1 -33z" fill="#f8c8dc"/>
</g>
</svg>